# xmcd
#
# Track frame offsets: 
#        187
#        19885
#        39660
#        53470
#        74955
#        95057
#        114235
#        130557
#        147625
#        163812
#
# Disc length: 2425 seconds
#
# Revision: 11
# Processed by: cddbd v1.5.2PL0 Copyright (c) Steve Scherf et al.
# Submitted via: ExactAudioCopy v0.99pb5
#
DISCID=9109770a
DTITLE=Alabama - Roll On
DYEAR=1984
DGENRE=Country
TTITLE0=Roll On (Eighteen Wheeler)
TTITLE1=Carolina Mountain Dewe
TTITLE2=The End Of The Lyin'
TTITLE3=I'm Not That Way Anymore
TTITLE4=If You're Gonna Play In Texas (You Gotta Have A Fiddle In The 
TTITLE4=Band)
TTITLE5=(There's A) Fire In The Night
TTITLE6=When We Make Love
TTITLE7=Country Side Of Life
TTITLE8=The Boy
TTITLE9=Food On The Table
EXTD=1984 RCA Records, Inc.\n\nOriginally Released 1984\n\nAMG EXPERT 
EXTD=REVIEW: The title track and "If You're Gonna Play in Texas (You G
EXTD=otta Have a Fiddle in the Band)" make this entertaining but sligh
EXTD=tly formulaic album worth pursuing.  -- Stephen Thomas Erlewine\n
EXTD=\nHalf.com Details \nProducer: Alabama, Harold Shedd \n\nAlbum No
EXTD=tes\nAlabama: Randy Owen (vocals, guitar) - Jeff Cook (guitar) - Te
EXTD=ddy Gentry (bass) - Mark Herndon (drums).\n\nAdditional personnel:
EXTD=Jack Eubanks, George (Leo) Jackson, Larry Shell (acoustic guitar
EXTD=) - Gregg Galbraith, Fred Newell (guitar) - Carl Jackson (banjo) - B
EXTD=laine Sprouse (fiddle) - The "A" Strings (strings) - Willie Rainsfo
EXTD=rd, Shane Keister (keyboards) - Larry Paxton (bass) - Milton Sledge
EXTD=(drums) - Farrell Morris (percussion).\n\nPrincipally recorded at
EXTD=Music Mill, Nashville, Tennessee.\n\nBefore Alabama began releas
EXTD=ing albums in the early 1980s, country bands that were credited a
EXTD=s an actual group proved to be a rarity in the genre, which was d
EXTD=ominated by solo artists or duos supported by anonymous backing e
EXTD=nsembles. Alabama's rock-tinged sound soon won over a legion of f
EXTD=ans, paving the way for other like-minded acts such as Sawyer Bro
EXTD=wn and Diamond Rio. On this 1984 outing, Alabama further honed it
EXTD=s amiable brand of country-rock, offering up a mix of slow-paced 
EXTD=love songs (the steamy "There's a Fire in the Night" and the smoo
EXTD=th, passionate "When We Make Love") and road-ready mid-tempo numb
EXTD=ers (the poignant trucking tale "Roll On [Eighteen Wheeler]" and 
EXTD=the rollicking "If You're Gonna Play in Texas"). Throughout the r
EXTD=ecord, the band's tight-knit instrumental interplay, particularly
EXTD=the proficient guitar work of Jeff Cook and frontman Randy Owen,
EXTD=elevates the charming tunes, making this one of Alabama's finest
EXTD=outings.
EXTT0=
EXTT1=
EXTT2=
EXTT3=
EXTT4=
EXTT5=
EXTT6=
EXTT7=
EXTT8=
EXTT9=
PLAYORDER=
